<svg width="336" height="177" viewBox="0 0 336 177" fill="none" xmlns="http://www.w3.org/2000/svg">
<g opacity="0.3" clip-path="url(#clip0_205_5448)">
<path d="M286.601 59.9558C283.841 68.2277 274.885 68.284 267.449 67.7775C253.199 66.8772 239.004 64.4575 225.26 60.7999C211.516 57.1423 197.998 52.1904 185.211 45.9443C177.776 42.2867 170.172 38.0664 169.102 29.1755C168.876 27.4874 171.693 27.1497 172.087 28.7816C172.481 30.5823 173.27 32.1579 174.284 33.6209C209.995 26.5308 250.608 37.5599 278.884 60.1809C279.898 60.9687 279.447 62.3192 278.602 63.0508C280.574 62.2067 282.038 60.9125 282.658 58.943C283.503 56.467 287.389 57.4799 286.601 59.9558ZM277.532 63.4447C277.194 63.4447 276.856 63.3884 276.518 63.1633C246.101 41.8365 213.319 33.6209 176.481 36.0969C181.325 40.7674 188.985 43.4684 194.562 45.888C203.856 49.8833 213.431 53.3158 223.176 56.0169C232.526 58.6616 242.102 60.6874 251.79 62.0942C256.691 62.8257 269.928 65.808 277.532 63.4447ZM277.194 109.362C275.692 112.175 274.059 114.877 272.294 117.465C284.629 120.447 297.81 124.049 305.696 134.571C311.667 142.506 313.187 152.972 307.611 161.469C295.444 179.87 265.872 177.957 247.228 175.368C218.67 171.429 189.154 162.988 162.286 152.634C150.063 147.908 138.121 142.281 127.194 135.078C119.984 130.239 110.972 124.161 109.338 114.989C105.451 93.2684 138.347 84.4901 154.794 85.4467C149.274 64.5701 151.246 41.4989 159.301 21.6352C159.751 20.566 160.99 20.3409 161.779 20.7911C186.788 0.758559 228.696 16.1769 254.607 25.8555C266.774 30.3572 281.306 35.0277 290.262 44.9877C295.782 51.1775 296.402 57.7613 294.994 64.4575C316.68 57.1423 343.661 76.1619 333.972 100.527C329.353 112.232 316.398 119.66 304.344 121.123C294.205 122.361 281.475 119.153 277.194 109.362V109.362ZM284.573 93.0433C291.163 100.865 307.273 109.193 316.623 100.584C323.552 94.1687 316.905 84.7714 310.258 81.9016C303.612 79.088 295.895 80.4386 289.023 81.7328C287.558 85.4467 286.15 89.2169 284.573 93.0433ZM283.165 96.4758C282.038 99.1769 280.912 101.822 279.673 104.41C279.785 104.598 279.879 104.804 279.954 105.029C282.658 117.409 298.88 118.872 308.963 116.114C318.651 113.47 328.678 106.436 331.1 96.1382C333.465 86.1782 328.283 74.9803 319.384 70.0284C311.329 65.583 302.598 65.808 294.036 68.1714C293.135 71.2101 291.952 74.305 290.713 77.3436C299.387 75.8806 308.963 75.0928 316.285 80.6074C321.806 84.8277 325.411 92.4806 322.425 99.2331C315.441 114.82 291.501 107.28 283.165 96.4758V96.4758ZM161.497 25.6867C153.612 54.0474 152.654 84.4901 170.228 109.756C185.324 131.42 211.404 144.025 237.709 137.272C267.675 129.62 278.095 99.8521 287.784 73.686C290.487 66.2582 294.092 58.2114 289.586 50.7274C286.657 45.7755 281.306 42.2867 276.349 39.5857C263.901 32.7206 249.932 28.0501 236.357 23.9423C214.276 17.3023 182.339 7.5111 162.793 25.124C162.399 25.5179 161.948 25.6867 161.497 25.6867V25.6867ZM269.815 120.954C269.027 121.967 268.294 122.98 267.449 123.88C258.662 134.065 245.989 140.311 232.808 142.393C205.489 146.67 179.86 132.208 165.271 109.587C160.99 102.947 157.78 95.8006 155.583 88.3165C142.853 89.1606 127.926 91.7491 118.519 101.146C103.593 116.058 124.152 128.776 135.812 135.697C158.118 148.808 183.24 155.954 208.08 162.594C232.583 169.122 261.422 177.788 286.657 170.529C299.95 166.646 312.286 155.335 304.795 140.649C298.204 127.819 283.052 124.161 270.153 121.123C270.041 121.066 269.928 121.01 269.815 120.954ZM128.489 126.131C124.659 126.018 120.998 122.698 118.857 119.772C116.379 116.452 115.14 112.401 115.647 108.293C115.816 107.055 117.506 106.999 117.618 108.237C117.844 111.782 118.97 115.158 121.223 117.915C123.476 120.785 126.293 121.629 129.222 123.486C130.348 124.218 129.954 126.187 128.489 126.131V126.131ZM135.305 125.512C129.954 122.923 125.391 118.253 122.237 113.357C121.505 112.175 123.307 111.219 124.096 112.288C127.588 116.959 131.756 120.11 136.657 123.148C138.178 124.049 136.882 126.243 135.305 125.512ZM178.903 53.0908C173.101 51.3464 166.68 46.9572 164.257 41.2175C163.919 40.3735 165.102 39.867 165.666 40.3735C167.637 42.3992 169.271 44.5375 171.58 46.2257C174.058 48.0826 176.706 49.2643 179.635 50.2209C181.381 50.8399 180.705 53.5972 178.903 53.0908V53.0908ZM182.395 64.2887C174.565 62.263 167.581 55.9043 163.075 49.4331C162.286 48.3077 164.145 46.9009 164.99 47.9701C170.284 54.3287 176.312 57.7613 183.521 61.5314C185.042 62.3192 183.972 64.6826 182.395 64.2887ZM275.223 53.147C270.773 49.6019 266.943 46.6196 261.479 44.7064C260.352 44.3125 260.803 42.568 261.986 42.8494C267.337 44.3125 273.308 47.126 276.856 51.5714C277.757 52.6969 276.349 54.0474 275.223 53.147ZM276.913 49.6019C275.223 46.4508 272.688 44.5938 269.083 44.3687C267.956 44.3125 267.956 42.7931 269.027 42.6806C273.195 42.2867 277.363 44.8752 278.94 48.7579C279.391 49.9396 277.476 50.6711 276.913 49.6019ZM326.424 90.1735C324.171 85.7843 321.975 82.408 317.412 80.1009C316.342 79.5945 317.299 78.0752 318.313 78.5816C322.707 80.4948 327.157 84.5463 328.34 89.3857C328.565 90.5111 326.988 91.2426 326.424 90.1735V90.1735Z" fill="#F9F4EF"/>
</g>
<g opacity="0.3" clip-path="url(#clip1_205_5448)">
<path d="M45.7142 119.771C42.6991 128.93 32.9888 132.629 24.0322 130.251C13.6124 127.521 5.7199 117.084 1.86235 107.528C-1.01972 100.306 -0.531985 90.6623 6.56235 86.4788C6.59191 86.3614 6.68059 86.2439 6.82839 86.1265C16.9378 78.6403 28.7322 85.8182 36.4473 93.1724C43.5416 99.91 49.0841 109.774 45.7142 119.771ZM37.9105 97.3999C31.1708 89.6935 18.401 79.8733 8.15858 87.4476C7.93688 87.6237 7.71518 87.6678 7.49349 87.6678C-2.61595 94.2292 3.41424 108.541 9.04537 116.424C15.2529 125.143 27.4463 133.686 38.2208 126.728C49.0397 119.815 44.7388 105.194 37.9105 97.3999V97.3999ZM34.8954 120.387C34.452 121.268 33.0331 120.607 33.3435 119.682C37.6001 107.572 23.0567 107.044 15.7407 103.169C11.218 100.791 7.44915 95.4623 10.3312 90.398C10.6859 89.6935 11.8388 90.2219 11.5727 90.9705C7.40481 101.848 23.6331 102.993 29.7963 106.471C34.8954 109.29 37.8218 114.882 34.8954 120.387ZM22.0369 125.231C19.1548 125.011 16.0067 122.545 14.4105 120.299C14.1001 119.859 14.7652 119.418 15.1199 119.771C16.1841 120.827 17.2482 121.796 18.5341 122.545C19.7756 123.293 21.1058 123.602 22.3916 124.174C22.9237 124.438 22.6133 125.275 22.0369 125.231ZM23.5888 122.941C21.5935 122.941 19.6425 122.016 18.135 120.739C17.7359 120.431 18.268 119.771 18.6671 120.079C20.1746 121.136 21.8152 121.576 23.6331 121.796C24.3425 121.884 24.3425 122.941 23.5888 122.941V122.941ZM24.8746 90.4861C23.7661 89.6935 22.8793 88.8127 21.5491 88.3283C20.1746 87.8439 18.7114 87.7118 17.2925 87.932C16.7161 88.0201 16.5388 87.1834 17.0708 87.0953C19.9086 86.5228 23.8991 87.2274 25.5841 89.8256C25.8501 90.2219 25.2737 90.7503 24.8746 90.4861ZM24.3869 92.3357C22.6576 91.2788 20.8841 90.6182 18.8888 90.2659C18.268 90.1779 18.4454 89.2091 19.0218 89.2531C21.1944 89.3852 23.3227 90.0898 25.1407 91.1907C25.8501 91.6311 25.1407 92.8201 24.3869 92.3357V92.3357Z" fill="#F9F4EF"/>
</g>
<g opacity="0.3" clip-path="url(#clip2_205_5448)">
<path d="M101.112 54.3898C96.6857 67.9384 82.4301 73.41 69.281 69.8926C53.9839 65.854 42.3971 50.4164 36.7339 36.2816C32.5027 25.599 33.2188 11.3339 43.6339 5.14578C43.6773 4.97208 43.8074 4.79838 44.0244 4.62468C58.8659 -6.44871 76.181 4.16872 87.5074 15.0467C97.9225 25.0128 106.059 39.6036 101.112 54.3898ZM89.6556 21.2999C79.7612 9.90083 61.014 -4.62486 45.9773 6.57881C45.6518 6.83936 45.3263 6.9045 45.0008 6.9045C30.1593 16.61 39.0122 37.7797 47.2791 49.4394C56.3924 62.3366 74.2933 74.9733 90.1112 64.6816C105.994 54.455 99.6801 32.8293 89.6556 21.2999V21.2999ZM85.2291 55.3018C84.5782 56.6045 82.4952 55.6274 82.9508 54.2595C89.1999 36.3467 67.849 35.5651 57.1084 29.8329C50.4688 26.3155 44.9357 18.4339 49.1669 10.943C49.6876 9.90083 51.3801 10.6825 50.9895 11.7898C44.8707 27.8788 68.6952 29.5724 77.7433 34.7183C85.2291 38.8871 89.5254 47.1595 85.2291 55.3018ZM66.3518 62.4669C62.1207 62.1412 57.499 58.4935 55.1556 55.1715C54.6999 54.5201 55.6763 53.8687 56.1971 54.3898C57.7593 55.9531 59.3216 57.3862 61.2093 58.4935C63.032 59.6008 64.9848 60.0568 66.8725 60.9036C67.6537 61.2944 67.198 62.532 66.3518 62.4669ZM68.6301 59.0797C65.7008 59.0797 62.8367 57.7118 60.6235 55.8228C60.0376 55.3669 60.8188 54.3898 61.4046 54.8458C63.6178 56.4091 66.0263 57.0605 68.6952 57.3862C69.7367 57.5164 69.7367 59.0797 68.6301 59.0797V59.0797ZM70.5178 11.0733C68.8905 9.90083 67.5886 8.59808 65.6357 7.88156C63.6178 7.16505 61.4697 6.96964 59.3867 7.29532C58.5405 7.4256 58.2801 6.18798 59.0612 6.05771C63.2273 5.21092 69.0857 6.25312 71.5593 10.0962C71.9499 10.6825 71.1037 11.4641 70.5178 11.0733ZM69.8018 13.8091C67.2631 12.2458 64.6593 11.2687 61.7301 10.7476C60.8188 10.6173 61.0791 9.18431 61.9254 9.24945C65.115 9.44486 68.2395 10.4871 70.9084 12.1155C71.9499 12.7669 70.9084 14.5256 69.8018 13.8091V13.8091Z" fill="#F9F4EF"/>
</g>
<defs>
<clipPath id="clip0_205_5448">
<rect width="227" height="166" fill="white" transform="translate(109 11)"/>
</clipPath>
<clipPath id="clip1_205_5448">
<rect width="47" height="48" fill="white" transform="translate(0 83)"/>
</clipPath>
<clipPath id="clip2_205_5448">
<rect width="69" height="71" fill="white" transform="translate(34)"/>
</clipPath>
</defs>
</svg>
