<svg width="194" height="187" viewBox="0 0 194 187" fill="none" xmlns="http://www.w3.org/2000/svg">
<g opacity="0.3" clip-path="url(#clip0_205_5428)">
<path d="M168.599 22.1996C169.958 23.304 170.22 23.7034 170.461 25.4816C170.702 27.2598 169.072 33.2243 168.079 34.6636C164.923 39.1086 157.603 34.8999 153.541 33.7945C144.247 31.3327 133.35 26.5781 123.697 28.8416C115.32 30.7985 108.842 37.1613 106.216 45.1549C112.952 40.3711 124.317 41.0703 131.688 41.9794C142.325 43.3378 152.571 47.4128 161.103 53.929C175.764 65.192 184.366 83.8792 183.212 102.391C181.896 124.122 166.636 146.213 149.812 159.324C133.819 171.809 114.44 174.088 96.714 163.915C80.6743 154.743 64.0918 141.043 60.9118 121.864C60.8337 121.385 61.0105 120.963 61.2586 120.677C47.6907 111.299 31.3488 111.412 15.4668 112.236C14.3984 112.312 13.542 110.979 14.1749 110.04C28.1123 90.0805 43.1074 70.8816 59.2871 52.6191C63.5601 47.7953 67.8809 42.9636 72.3287 38.3076C74.2567 36.2736 76.3702 33.5706 79.3373 33.0863C82.6471 32.5951 86.1941 35.0618 88.9237 36.4338C89.815 36.8778 90.7089 37.3377 91.6054 37.8136C95.3309 25.121 101.788 8.39656 117.267 9.01376C126.026 9.40145 135.039 12.5478 143.418 14.8152C148.175 16.0691 152.911 17.3919 157.626 18.7838C160.716 19.6548 166.103 20.1509 168.599 22.1996V22.1996ZM48.9096 111.542C54.5297 99.621 61.8217 88.3112 68.1977 76.8071C74.8009 64.8892 81.3114 52.9047 87.7291 40.8534C88.6355 39.1826 91.1893 40.6815 90.3307 42.3445C83.9078 54.3639 77.3788 66.3351 70.7437 78.2582C64.4879 89.5953 58.5806 101.563 51.2427 112.291C55.2634 113.747 59.0985 115.872 62.6123 118.737C62.5967 118.641 62.6367 118.586 62.669 118.482C69.1505 106.42 76.9054 94.9368 83.761 83.0596C90.4641 71.453 96.8968 59.694 103.162 47.8149C98.6837 45.0582 94.1806 42.4529 89.5652 40.0624C83.9311 37.1505 79.2102 35.3176 74.4342 40.371C67.7225 47.4105 61.2891 54.6503 54.9748 62.0179C42.0182 77.1507 29.8486 92.8918 18.3549 109.161C28.5441 108.677 39.2421 108.601 48.9096 111.542V111.542ZM105.467 49.8949C105.414 49.9691 105.344 50.0459 105.259 50.1253C99.138 61.6861 92.8578 73.1746 86.307 84.5107C79.4993 96.3801 72.8098 108.672 64.7374 119.716C64.4493 120.058 64.0821 120.216 63.6914 120.231C63.6803 120.364 63.6374 120.502 63.5625 120.645C63.6523 120.794 63.7103 120.948 63.7363 121.108C65.5806 132.105 71.9361 140.942 80.0662 148.309C88.5537 156.061 99.4642 163.908 110.782 166.727C136.684 173.11 158.458 150.594 170.57 130.588C183.052 109.835 183.957 84.6829 168.398 65.2154C161.302 56.3526 151.422 50.0073 140.536 46.8229C131.354 44.1463 112.281 41.0703 105.467 49.8949V49.8949ZM159.232 22.304C157.273 21.7396 155.314 21.1752 153.355 20.6108C145.486 18.3583 137.578 16.2598 129.629 14.3152C121.337 12.2792 111.741 9.47367 105.093 16.6011C99.6526 22.4015 96.5846 31.5972 93.7061 38.9444C96.9419 40.7086 100.14 42.5444 103.301 44.4519C106.209 35.4788 113.52 28.1941 122.885 25.9775C128.613 24.6495 134.334 25.6807 139.917 27.0781C143.915 28.0956 147.881 29.2166 151.839 30.2898C154.308 30.9675 161.727 34.2759 163.961 33.5182C166.571 32.6501 168.281 26.5743 166.311 24.4397C165.485 23.5921 160.371 22.6585 159.232 22.304V22.304ZM171.972 81.0884C177.931 96.5229 174.484 113.935 166.45 127.92C158.359 142.161 143.768 157.216 127.144 160.716C112.753 163.753 97.771 157.749 87.0813 148.245C86.5647 147.789 86.8782 147.001 87.4213 146.716C87.4213 146.716 87.4187 146.7 87.4134 146.668C86.7443 129.928 94.5728 113.176 107.315 102.45C114.222 96.6067 122.494 92.8003 128.495 85.9258C135.529 77.8512 139.215 67.6214 138.111 56.9453C138.041 56.2198 138.457 55.7588 138.976 55.6251C139.154 54.9083 139.793 54.3127 140.694 54.4113C155.156 56.3243 166.859 67.8246 171.972 81.0884V81.0884ZM141.09 57.4414C142.544 73.2675 133.904 87.1552 121.271 96.1439C112.729 102.205 104.7 107.495 98.8903 116.45C92.9685 125.62 90.2716 135.885 89.7251 146.683C89.6841 147.034 89.5395 147.352 89.3237 147.535C100.347 155.167 113.656 160.855 127.29 157.696C142.384 154.151 155.75 140.327 163.415 127.384C171.023 114.402 174.761 98.1703 169.724 83.5677C165.153 70.3137 154.671 60.5789 141.09 57.4414V57.4414ZM123.225 24.4483C118.839 24.9678 114.959 26.7802 111.959 30.07C111.295 30.817 110.286 29.7536 110.894 28.9665C113.912 25.1826 118.313 22.6467 123.225 22.3362C124.588 22.261 124.525 24.2853 123.225 24.4483ZM123.664 22.0188C120.582 21.1956 117.43 22.0539 115.318 24.462C114.741 25.1455 113.612 24.2491 114.085 23.5333C116.431 20.4486 120.391 18.8198 124.197 19.8685C125.583 20.2318 125.05 22.3821 123.664 22.0188ZM44.3147 107.773C45.1575 108.421 44.0939 109.43 43.3058 109.116C40.082 107.727 37.3514 106.65 33.7545 107.188C32.8452 107.336 32.4829 106.02 33.3844 105.824C36.9901 105.039 41.4133 105.348 44.3147 107.773V107.773ZM44.5355 106.116C42.5041 105.71 40.4894 105.106 38.4902 104.597C37.6699 104.387 38.0167 103.201 38.8692 103.307C40.885 103.617 42.9808 103.815 45.0044 104.172C46.2789 104.456 45.81 106.399 44.5355 106.116V106.116ZM97.1452 71.1483C94.9564 74.8952 92.7754 78.6898 90.4753 82.3566C89.8825 83.2393 88.5855 82.5177 89.0749 81.6027C91.0967 77.7358 93.222 73.9011 95.3551 70.1142C96.0046 68.9766 97.8426 70.0029 97.1452 71.1483V71.1483ZM101.858 70.5263C100.94 73.3289 98.8033 75.8883 96.7797 77.9379C96.0198 78.7006 94.9553 77.5971 95.6117 76.8023C97.5162 74.6247 98.6482 72.2293 100.123 69.8272C100.668 68.9522 102.229 69.4834 101.858 70.5263V70.5263ZM99.8645 125.428C97.4667 129.7 96.0484 134.255 95.5696 139.147C95.4709 140.047 94.0041 140.09 94.0949 139.142C94.3354 133.994 95.7947 129.089 98.2414 124.514C98.8108 123.488 100.434 124.402 99.8645 125.428V125.428ZM103.697 123.623C102.474 126.967 101.115 130.382 99.5106 133.493C99.2537 134.026 98.4578 133.665 98.619 133.147C99.5391 129.755 100.842 126.3 102.224 123.029C102.578 122.185 104.003 122.788 103.697 123.623V123.623ZM167.228 83.9261C168.274 87.9307 168.627 92.196 168.366 96.3159C168.259 97.1684 166.944 97.2357 166.939 96.3032C166.913 92.2302 166.384 88.3867 165.44 84.4143C165.157 83.2816 166.897 82.8011 167.228 83.9261ZM160.951 82.4945C162.527 85.5285 163.648 88.7841 164.011 92.2126C164.104 93.0817 162.708 93.2604 162.52 92.4069C161.861 89.2724 160.882 86.2882 159.202 83.5169C158.528 82.3988 160.365 81.3129 160.951 82.4945V82.4945Z" fill="#FFFFFE"/>
</g>
<defs>
<clipPath id="clip0_205_5428">
<rect width="170.195" height="160.96" fill="white" transform="translate(0 27.4194) rotate(-9.27114)"/>
</clipPath>
</defs>
</svg>
